# xmcd CD database file
#
# Track frame offsets:
#	150
#	20262
#	38302
#	58360
#	79157
#	100967
#	120992
#	139092
#	155877
#	176422
#
# Disc length: 2652 seconds
#
# Revision: 0
# Processed by: cddbd v1.5.1PL0 Copyright (c) Steve Scherf et al.
# Submitted via: CDex 1.51
#
DISCID=7a0a5a0a
DTITLE=栗林みえ - OK!OK!!
DYEAR=1999
DGENRE=JPop
TTITLE0=OK!OK!!(アルバム・ミックス)
TTITLE1=だんだん君がスキになる
TTITLE2=恋を祈ってる
TTITLE3=泣いてるんだよ
TTITLE4=雨ノサヨナラ
TTITLE5=Say Hello!(アルバム・ヴァージョン)
TTITLE6=微笑にまにあうから
TTITLE7=はっぴいえんど
TTITLE8=春になったら
TTITLE9=オレンジの空
EXTD=YEAR: 1999
EXTT0=
EXTT1=
EXTT2=
EXTT3=
EXTT4=
EXTT5=
EXTT6=
EXTT7=
EXTT8=
EXTT9=
PLAYORDER=
